<svg xmlns="http://www.w3.org/2000/svg" enable-background="new 0 0 512 512" viewBox="0 0 512 512"><path d="M375.865,337.515l-18.219-19.555c-1.118-1.195-1.757-2.94-1.757-4.786v-98.23c0-29.162-10.276-56.579-28.927-77.191
	c-18.904-20.957-44.102-32.499-70.963-32.499c-55.083,0-99.894,49.208-99.894,109.689v98.23c0,1.848-0.639,3.593-1.752,4.791
	l-18.204,19.531c-5.157,5.505-6.514,13.625-3.452,20.684c2.888,6.667,9.022,10.809,16.002,10.809h65.796
	c0.899,9.615,5.069,18.57,12.001,25.557c7.862,7.865,18.336,12.197,29.505,12.197c21.66,0,39.503-16.606,41.498-37.755h65.799
	c6.984,0,13.118-4.143,16.006-10.812C382.365,351.119,381.008,343.001,375.865,337.515z M256,387.507
	c-6.026,0-11.671-2.33-15.87-6.533c-3.302-3.328-5.453-7.487-6.247-11.984h44.229C276.243,379.501,267.037,387.507,256,387.507z
	 M297.697,349.752h-83.395h-63.279l17.406-18.674c4.457-4.788,6.914-11.148,6.914-17.904v-98.23
	c0-49.874,36.184-90.452,80.657-90.452c21.342,0,41.472,9.285,56.685,26.156c15.457,17.08,23.967,39.913,23.967,64.296v98.23
	c0,6.761,2.461,13.123,6.923,17.904l17.354,18.674H297.697z"/></svg>