<svg xmlns="http://www.w3.org/2000/svg" viewBox="0 0 128 128" id="Instagram">
  <path d="M84 36H44a8 8 0 0 0-8 8v40a8 8 0 0 0 8 8h40a8 8 0 0 0 8-8V44a8 8 0 0 0-8-8ZM64 80a16 16 0 1 1 16-16 16 16 0 0 1-16 16Zm18-29a5 5 0 1 1 5-5 5 5 0 0 1-5 5Z" fill="#ffffff" class="color000000 svgShape"></path>
  <circle cx="64" cy="64" r="8" fill="#ffffff" class="color000000 svgShape"></circle>
  <path d="M64 0a64 64 0 1 0 64 64A64 64 0 0 0 64 0Zm36 84a16 16 0 0 1-16 16H44a16 16 0 0 1-16-16V44a16 16 0 0 1 16-16h40a16 16 0 0 1 16 16Z" fill="#ffffff" class="color000000 svgShape"></path>
</svg>
