<svg xmlns="http://www.w3.org/2000/svg" viewBox="0 0 100 100"><path fill="#0073a8" d="M68.272 50.283c.018-.095.051-.187.051-.283 0-.096-.033-.188-.051-.283-.018-.094-.022-.189-.058-.279-.037-.092-.107-.169-.163-.253-.051-.076-.082-.162-.148-.23l-24.291-25a1.5 1.5 0 0 0-2.151 2.091L64.736 50 41.46 73.955a1.5 1.5 0 1 0 2.151 2.09l24.291-25c.066-.068.097-.153.148-.23.056-.084.126-.161.163-.253.037-.09.041-.185.059-.279z"/><path fill="#0073a8" d="M50 8c23.159 0 42 18.841 42 42S73.159 92 50 92 8 73.159 8 50 26.841 8 50 8m0-3C25.147 5 5 25.147 5 50s20.147 45 45 45 45-20.147 45-45S74.853 5 50 5z"/></svg>