<svg xmlns="http://www.w3.org/2000/svg" viewBox="0 0 32 32" id="QuestionMark">
  <path d="M21.5,12.266a5.412,5.412,0,0,1-3.767,6.356c-.63.186-.722.319-.73.334L17,21a1,1,0,0,1-2,0V19c0-1.657,1.633-2.138,2.169-2.3a3.427,3.427,0,0,0,2.375-4.03,3.391,3.391,0,0,0-2.611-2.6,3.431,3.431,0,0,0-3.282,1.065,1,1,0,1,1-1.49-1.333,5.42,5.42,0,0,1,9.34,2.459ZM30,16A14,14,0,1,1,16,2,14.015,14.015,0,0,1,30,16Zm-2,0A12,12,0,1,0,16,28,12.013,12.013,0,0,0,28,16ZM16,23a1,1,0,0,0-1,1v1a1,1,0,0,0,2,0V24A1,1,0,0,0,16,23Z" fill="#ffffff" class="color000000 svgShape"></path>
</svg>
