<svg xmlns="http://www.w3.org/2000/svg" data-name="Layer 1" viewBox="0 0 64 64"><path d="M4.8,48.85s0,0,0,0A31.79,31.79,0,0,0,31.55,64H32A31.84,31.84,0,0,0,59.18,48.89s0,0,0,0h0a32,32,0,0,0,0-33.71h0A31.79,31.79,0,0,0,32.45,0H32A31.84,31.84,0,0,0,4.82,15.11h0a32,32,0,0,0,0,33.71ZM37.24,61.58c2.7-2.64,5-7.36,6.45-13.67,4.32.25,8.67.67,13,1.23A29.87,29.87,0,0,1,37.24,61.58Zm6.29-41.12c-.22,0-.44,0-.66,0a3.92,3.92,0,0,1-2.62-.78c-1-1-1-4.17,0-5.22a4,4,0,0,1,2.62-.78,4,4,0,0,1,2.61.78c1,1.05,1,4.17,0,5.22a3.27,3.27,0,0,1-1.87.73h-.08ZM57.82,47.32c-4.53-.62-9.14-1.07-13.71-1.35a72.47,72.47,0,0,0,1.3-13H62A29.88,29.88,0,0,1,57.82,47.32ZM62,31H45.41a75.16,75.16,0,0,0-.62-8.8,4.57,4.57,0,0,0,2.08-1.12,5.49,5.49,0,0,0,1.33-3.36c3.11-.25,6.28-.6,9.63-1A29.9,29.9,0,0,1,62,31ZM56.66,14.86c-3,.39-5.78.7-8.56.92a4.92,4.92,0,0,0-1.23-2.65,5.6,5.6,0,0,0-4-1.37l-.41,0c-1.4-4.17-3.21-7.36-5.25-9.36A29.88,29.88,0,0,1,56.66,14.86ZM33,2.08c2.83.69,5.57,4.35,7.53,10.05a4.25,4.25,0,0,0-1.65,1,5.39,5.39,0,0,0-1.32,3.24c-1.61,0-3.12.07-4.56.07ZM33,18.4c1.46,0,3,0,4.62-.07a5.16,5.16,0,0,0,1.26,2.77h0a5.61,5.61,0,0,0,4,1.36A71.09,71.09,0,0,1,43.45,31H33ZM33,33H43.45a70,70,0,0,1-1.32,12.88c-3-.16-6.11-.24-9.15-.25Zm0,14.59c2.9,0,5.82.09,8.72.23C39.76,55.74,36.46,61.06,33,61.91ZM7.34,49.14c2.95-.39,5.78-.69,8.56-.92a4.92,4.92,0,0,0,1.23,2.65h0a5.6,5.6,0,0,0,4,1.37l.41,0c1.4,4.17,3.21,7.36,5.25,9.36A29.88,29.88,0,0,1,7.34,49.14Zm11.18-4.86a3.23,3.23,0,0,1,1.77-.72h.18c.22,0,.44,0,.66,0a3.92,3.92,0,0,1,2.62.78c1,1,1,4.17,0,5.22a4,4,0,0,1-2.62.78,4,4,0,0,1-2.61-.78C17.48,48.45,17.48,45.33,18.52,44.28ZM31,61.92c-2.83-.69-5.57-4.35-7.53-10.05a4.25,4.25,0,0,0,1.65-1,5.37,5.37,0,0,0,1.32-3.24c1.61,0,3.12-.07,4.56-.07ZM31,45.6c-1.46,0-3,0-4.62.07a5.16,5.16,0,0,0-1.26-2.77,5.61,5.61,0,0,0-4-1.36A71.09,71.09,0,0,1,20.55,33H31ZM31,31H20.55a70,70,0,0,1,1.32-12.88c3,.16,6.1.25,9.15.25ZM31,2.09V16.43c-2.9,0-5.82-.09-8.72-.23C24.24,8.26,27.54,2.94,31,2.09Zm-4.26.33c-2.7,2.64-5,7.36-6.45,13.67-4.32-.25-8.67-.67-13-1.23A29.87,29.87,0,0,1,26.76,2.42ZM6.18,16.68c4.53.62,9.14,1.07,13.71,1.35a72.47,72.47,0,0,0-1.3,13H2A29.88,29.88,0,0,1,6.18,16.68ZM18.59,33a75.16,75.16,0,0,0,.62,8.8,4.57,4.57,0,0,0-2.08,1.12,5.49,5.49,0,0,0-1.33,3.36c-3.12.25-6.28.6-9.63,1.05A29.9,29.9,0,0,1,2,33Z"/></svg>